<svg width="256" height="256" viewBox="0 0 24 24" xmlns="http://www.w3.org/2000/svg"><rect x="0" y="0" width="24" height="24" rx="8" fill="none"/><svg xmlns="http://www.w3.org/2000/svg" viewBox="0 0 24 24" fill="#ffffff" x="0" y="0" width="24" height="24"><g fill="#ffffff"><path fill-rule="evenodd" d="M10.512 4.43a.75.75 0 0 0-.081 1.058L16.012 12l-5.581 6.512a.75.75 0 1 0 1.138.976l6-7a.75.75 0 0 0 0-.976l-6-7a.75.75 0 0 0-1.057-.081Z" clip-rule="evenodd"/><path d="M6.25 5a.75.75 0 0 1 1.32-.488l6 7a.75.75 0 0 1 0 .976l-6 7A.75.75 0 0 1 6.25 19V5Z"/></g></svg></svg>